<?xml version="1.0" encoding="UTF-8"?> <svg xmlns="http://www.w3.org/2000/svg" viewBox="0 0 92.47 26.31"><defs><style>.cls-1{fill:#236b97;}</style></defs><title>Asset 3</title><g id="Layer_2" data-name="Layer 2"><g id="Layer_1-2" data-name="Layer 1"><path class="cls-1" d="M26.38,19.69H24a.94.94,0,0,1,0-1.87h2.36a.94.94,0,0,1,0,1.87Z"></path><path class="cls-1" d="M31.19,19.69H29.7a.94.94,0,0,1,0-1.87h1.49a.94.94,0,0,1,0,1.87Z"></path><path class="cls-1" d="M30.14,14.09H25.33a.94.94,0,0,1,0-1.87h4.81a.94.94,0,0,1,0,1.87Z"></path><path class="cls-1" d="M34.07,11.29H27.51a.94.94,0,0,1,0-1.87h6.56a.94.94,0,0,1,0,1.87Z"></path><path class="cls-1" d="M33.81,16.89H29A.94.94,0,0,1,29,15h4.81a.94.94,0,0,1,0,1.87Z"></path><path class="cls-1" d="M63.33,14.09H58.39a.94.94,0,0,1,0-1.87h4.94a.94.94,0,0,1,0,1.87Z"></path><path class="cls-1" d="M59.53,8.49H57.48a.93.93,0,1,1,0-1.86h2.05a.93.93,0,1,1,0,1.86Z"></path><path class="cls-1" d="M65.13,8.49h-2a.93.93,0,1,1,0-1.86h2a.93.93,0,1,1,0,1.86Z"></path><path class="cls-1" d="M67.14,16.89H62.56a.94.94,0,0,1,0-1.87h4.58a.94.94,0,0,1,0,1.87Z"></path><path class="cls-1" d="M67.14,11.29h-6a.94.94,0,0,1,0-1.87h6a.94.94,0,0,1,0,1.87Z"></path><path class="cls-1" d="M46.24,0A13.16,13.16,0,1,0,59.39,13.16,13.16,13.16,0,0,0,46.24,0Zm0,24.45A11.29,11.29,0,1,1,57.53,13.16,11.29,11.29,0,0,1,46.24,24.45Z"></path><path class="cls-1" d="M79.32,0A13.16,13.16,0,1,0,92.47,13.16,13.16,13.16,0,0,0,79.32,0Zm0,24.45A11.29,11.29,0,1,1,90.61,13.16,11.29,11.29,0,0,1,79.32,24.45Z"></path><path class="cls-1" d="M13.16,0A13.16,13.16,0,1,0,26.31,13.16,13.16,13.16,0,0,0,13.16,0Zm0,24.45A11.29,11.29,0,1,1,24.45,13.16,11.29,11.29,0,0,1,13.16,24.45Z"></path><path class="cls-1" d="M84.18,17.06l-2.57-2.68a3.66,3.66,0,0,0,.38-.83,3.51,3.51,0,0,0,.16-1A3.46,3.46,0,1,0,78.69,16a3.81,3.81,0,0,0,.67-.07.32.32,0,1,0-.12-.62,2.57,2.57,0,0,1-.55.06,2.83,2.83,0,1,1,2.83-2.83,2.62,2.62,0,0,1-.13.83,2.8,2.8,0,0,1-1,1.43h0l0,0,0,.05a.14.14,0,0,0,0,.06s0,0,0,.06a266621975326.7,266621975326.7,0,0,0,0,.12l0,0s0,0,0,0h0v0l2.72,2.91a.82.82,0,0,0,.56.23.78.78,0,0,0,.55-.23.76.76,0,0,0,.23-.55.82.82,0,0,0-.22-.56Zm-.45.67a.16.16,0,0,1-.22,0L81,15.07l.19-.19,2.51,2.62a.17.17,0,0,1,0,.12.17.17,0,0,1,0,.11Z"></path><path class="cls-1" d="M78.69,14.1a.31.31,0,0,1-.32-.31V11.27a.32.32,0,0,1,.63,0v2.52a.31.31,0,0,1-.31.31Z"></path><path class="cls-1" d="M80,12.84H77.43a.32.32,0,0,1,0-.63H80a.32.32,0,0,1,0,.63Z"></path><path class="cls-1" d="M40.05,15A1.57,1.57,0,0,1,39,14.67a1.27,1.27,0,0,1-.39-1,2.49,2.49,0,0,1,.17-.93,2.13,2.13,0,0,1,.47-.73,2,2,0,0,1,.7-.46,2.27,2.27,0,0,1,.86-.17,3.53,3.53,0,0,1,.67.07,2.33,2.33,0,0,1,.56.22l-.21.85h-.1a1.53,1.53,0,0,0-.45-.35,1.15,1.15,0,0,0-1.38.31,1.62,1.62,0,0,0-.34,1.07.83.83,0,0,0,.19.61.76.76,0,0,0,.55.18,1.42,1.42,0,0,0,.61-.13,2.18,2.18,0,0,0,.54-.33h.09l-.2.84-.25.1-.27.1a2.06,2.06,0,0,1-.32.07A2.15,2.15,0,0,1,40.05,15Z"></path><path class="cls-1" d="M43.33,11.29,42.48,15h-.85l.85-3.66Z"></path><path class="cls-1" d="M44.5,12.31,43.89,15H43l.61-2.64Zm.26-1-.15.64h-.9l.15-.64Z"></path><path class="cls-1" d="M47.54,12.91s0,.09,0,.15l0,.17L47.1,15h-.85l.3-1.31c0-.1,0-.18.05-.25a1.37,1.37,0,0,0,0-.19.28.28,0,0,0-.08-.22.42.42,0,0,0-.29-.08A.8.8,0,0,0,46,13a1.82,1.82,0,0,0-.3.13L45.29,15h-.85l.61-2.64h.85l-.07.29.48-.27a1.24,1.24,0,0,1,.48-.09.79.79,0,0,1,.55.17A.63.63,0,0,1,47.54,12.91Z"></path><path class="cls-1" d="M50.88,12.31,50.27,15h-.85l.06-.29a2.07,2.07,0,0,1-.25.15l-.22.12-.25.07a.9.9,0,0,1-.23,0,.86.86,0,0,1-.55-.16.63.63,0,0,1-.2-.5c0-.06,0-.11,0-.16l0-.17.4-1.72h.86l-.31,1.31c0,.1,0,.19-.05.26a1.41,1.41,0,0,0,0,.18.3.3,0,0,0,.08.23.45.45,0,0,0,.28.07.79.79,0,0,0,.24,0,1.45,1.45,0,0,0,.29-.13L50,12.31Z"></path><path class="cls-1" d="M51.85,13.61l-.74-1.3H52l.43.81.75-.81h1l-1.35,1.32L53.58,15h-.91l-.42-.81-.79.81h-1Z"></path><path class="cls-1" d="M18.37,14.8H8a.18.18,0,0,1-.18-.17V8.74A.71.71,0,0,1,8.56,8h9.27a.71.71,0,0,1,.72.71v5.89A.18.18,0,0,1,18.37,14.8ZM8.21,14.45h10V8.74a.36.36,0,0,0-.36-.35H8.56a.35.35,0,0,0-.35.35Z"></path><path class="cls-1" d="M17.83,16.23H8.56a.71.71,0,0,1-.71-.71v-.89A.18.18,0,0,1,8,14.45H18.37a.18.18,0,0,1,.18.18v.89A.71.71,0,0,1,17.83,16.23ZM8.21,14.8v.72a.35.35,0,0,0,.35.35h9.27a.36.36,0,0,0,.36-.35V14.8Z"></path><path class="cls-1" d="M13.73,15.52H12.66a.18.18,0,0,1,0-.36h1.07a.18.18,0,0,1,0,.36Z"></path><path class="cls-1" d="M17.66,14.8H8.74a.18.18,0,0,1-.18-.17V8.92a.18.18,0,0,1,.18-.18h8.92a.18.18,0,0,1,.17.18v5.71A.18.18,0,0,1,17.66,14.8Zm-8.74-.35h8.56V9.1H8.92Z"></path><path class="cls-1" d="M15.52,18.37H10.88a.54.54,0,0,1,0-1.07h4.64a.54.54,0,0,1,0,1.07Zm-4.64-.71a.18.18,0,0,0-.18.17.18.18,0,0,0,.18.18h4.64a.18.18,0,0,0,.18-.18.18.18,0,0,0-.18-.17Z"></path><path class="cls-1" d="M15.16,17.66H11.24a.18.18,0,1,1,0-.36c.59,0,.89-.42.89-1.25a.18.18,0,0,1,.18-.18h1.78a.18.18,0,0,1,.18.18c0,.83.3,1.25.89,1.25a.18.18,0,0,1,0,.36Zm-3.05-.36h2.18a1.67,1.67,0,0,1-.37-1.07H12.48A1.67,1.67,0,0,1,12.11,17.3Z"></path><path class="cls-1" d="M15.74,14.09a.21.21,0,0,1-.13-.05l-.43-.43-.25.25a.21.21,0,0,1-.17.05.2.2,0,0,1-.13-.12L14.1,12a.17.17,0,0,1,0-.17.18.18,0,0,1,.18-.05l1.78.54a.18.18,0,0,1,.13.12.21.21,0,0,1-.05.17l-.24.24.43.43a.18.18,0,0,1,0,.25l-.5.51A.21.21,0,0,1,15.74,14.09Zm-.56-.89a.23.23,0,0,1,.17.07l.39.39.25-.25L15.58,13a.17.17,0,0,1-.06-.14.2.2,0,0,1,.06-.14l.14-.14-1.18-.35.35,1.18.13-.13A.2.2,0,0,1,15.18,13.2Z"></path><path class="cls-1" d="M15.34,10.7h-5a.18.18,0,0,1-.18-.17v-.9a.18.18,0,0,1,.18-.17h5a.18.18,0,0,1,.18.17v.9A.18.18,0,0,1,15.34,10.7Zm-4.81-.35h4.63V9.81H10.53Z"></path><path class="cls-1" d="M12.49,12.49H11.06a.18.18,0,0,1-.18-.18V11.6a.18.18,0,0,1,.18-.18h1.43a.18.18,0,0,1,.17.18v.71A.18.18,0,0,1,12.49,12.49Zm-1.25-.36h1.07v-.36H11.24Z"></path><path class="cls-1" d="M14.59,13.2H10.35a.18.18,0,0,1-.18-.18V9.63a.18.18,0,0,1,.18-.17h5a.18.18,0,0,1,.18.17v2.64a.21.21,0,0,1-.07.15.18.18,0,0,1-.16,0l-.75-.22.22.75a.16.16,0,0,1,0,.16A.17.17,0,0,1,14.59,13.2Zm-4.06-.36h3.82L14.1,12a.17.17,0,0,1,0-.17.18.18,0,0,1,.18-.05l.84.25V9.81H10.53Z"></path></g></g></svg> 