<?xml version="1.0" encoding="UTF-8"?> <!-- Generator: Adobe Illustrator 24.1.2, SVG Export Plug-In . SVG Version: 6.00 Build 0) --> <svg xmlns="http://www.w3.org/2000/svg" xmlns:xlink="http://www.w3.org/1999/xlink" version="1.1" id="Layer_1" x="0px" y="0px" viewBox="0 0 283.465 283.465" style="enable-background:new 0 0 283.465 283.465;" xml:space="preserve"> <circle style="fill:#6598C0;" cx="141.732" cy="141.732" r="141.732"></circle> <circle style="fill:#FFFFFF;" cx="141.732" cy="141.732" r="129.411"></circle> <g> <path style="fill:#236B97;" d="M232.965,95.153l-60.153-10.779V68.479c0-3.101-2.514-5.617-5.617-5.617h-33.831l-11.67-8.004 c-0.934-0.642-2.042-0.985-3.177-0.985l-25.463,0.002c-2.802,0-5.178,2.067-5.562,4.844l-1.199,8.636H67.217 c-1.488,0-2.918,0.593-3.971,1.646c-1.053,1.053-1.644,2.481-1.644,3.971V90.7l-13.88,12.556c-1.176,1.065-1.849,2.578-1.849,4.166 v28.458c0,1.49,0.591,2.918,1.644,3.971c1.053,1.053,2.483,1.646,3.973,1.646h36.066l29.804,26.379l10.034,32.44l-13.338,22.574 c-0.825,1.394-1.006,3.077-0.499,4.616c0.509,1.541,1.656,2.785,3.15,3.415l33.7,14.227c0.706,0.299,1.447,0.443,2.182,0.443 c1.58,0,3.128-0.667,4.216-1.905l26.211-29.767c0.903-1.025,1.402-2.346,1.402-3.711v-9.923h20.22c2.941,0,5.385-2.27,5.601-5.203 l2.455-33.31l23.021-20.581c1.192-1.065,1.874-2.588,1.874-4.187v-36.322C237.591,97.961,235.643,95.632,232.965,95.153 L232.965,95.153z M226.358,134.491l-22.839,20.417c-1.086,0.97-1.751,2.323-1.859,3.774l-2.239,30.369h-20.618 c-3.101,0-5.617,2.514-5.617,5.617v13.418l-22.137,25.139l-24.053-10.153l11.335-19.181c0.805-1.365,0.999-3.006,0.53-4.519 l-11.233-36.32c-0.304-0.985-0.874-1.865-1.644-2.547l-32.577-28.833c-1.028-0.909-2.352-1.41-3.723-1.41H57.107v-20.349 l13.88-12.558c1.176-1.065,1.849-2.576,1.849-4.164V78.589h18.348c2.802,0,5.176-2.067,5.562-4.844l1.199-8.636l18.832-0.002 l11.67,8.004c0.934,0.642,2.041,0.985,3.175,0.985h29.956v14.978c0,2.719,1.95,5.049,4.626,5.529l60.153,10.779V134.491z M226.358,134.491"></path> </g> <g> </g> <g> </g> <g> </g> <g> </g> <g> </g> <g> </g> </svg> 