<?xml version="1.0" encoding="UTF-8"?> <svg xmlns="http://www.w3.org/2000/svg" viewBox="0 0 360 360"><defs><style>.cls-1{fill:#fff;}</style></defs><title>cog</title><g id="Layer_2" data-name="Layer 2"><g id="Layer_1-2" data-name="Layer 1"><path class="cls-1" d="M.48,249.65A6,6,0,0,0,5.2,255l20.91,4.52a94,94,0,0,0,2.8,10.51L13.09,284.4a6,6,0,0,0-1.39,7,119.12,119.12,0,0,0,9.58,16.72,6,6,0,0,0,6.77,2.29l20.32-6.54a97.46,97.46,0,0,0,7.74,7.74L49.57,332a6,6,0,0,0,2.29,6.77,120.57,120.57,0,0,0,16.71,9.58,6,6,0,0,0,7-1.39l14.34-15.83a96.39,96.39,0,0,0,10.52,2.81L105,354.8a6,6,0,0,0,5.38,4.72c3.19.25,6.39.48,9.65.48s6.46-.23,9.65-.48A6,6,0,0,0,135,354.8l4.52-20.91a94.76,94.76,0,0,0,10.52-2.81l14.34,15.83a6,6,0,0,0,7,1.39,120.42,120.42,0,0,0,16.71-9.58,6,6,0,0,0,2.3-6.77l-6.55-20.32a95.81,95.81,0,0,0,7.74-7.74L212,310.44a6,6,0,0,0,6.77-2.3,120,120,0,0,0,9.57-16.71,6,6,0,0,0-1.38-7l-15.83-14.34a96.22,96.22,0,0,0,2.81-10.51L234.81,255a6,6,0,0,0,4.72-5.38c.24-3.19.47-6.39.47-9.65s-.23-6.46-.48-9.65A6,6,0,0,0,234.8,225l-20.91-4.51a94.72,94.72,0,0,0-2.8-10.52l15.82-14.34a6,6,0,0,0,1.39-7,119.86,119.86,0,0,0-9.58-16.7,6,6,0,0,0-6.77-2.3l-20.32,6.54a97.33,97.33,0,0,0-7.74-7.73L190.43,148a6,6,0,0,0-2.29-6.77,120.57,120.57,0,0,0-16.71-9.58,6,6,0,0,0-7,1.39L150.06,148.9a99.31,99.31,0,0,0-10.52-2.8L135,125.19a6,6,0,0,0-5.38-4.72,123.12,123.12,0,0,0-19.3,0,6,6,0,0,0-5.39,4.72l-4.52,20.91a96.79,96.79,0,0,0-10.51,2.8L75.59,133.08a6,6,0,0,0-7-1.39,119.41,119.41,0,0,0-16.71,9.58,6,6,0,0,0-2.3,6.77l6.54,20.33a97.21,97.21,0,0,0-7.73,7.73l-20.32-6.54a6,6,0,0,0-6.77,2.3,118.87,118.87,0,0,0-9.58,16.7,6,6,0,0,0,1.39,7l15.82,14.34a97,97,0,0,0-2.8,10.52L5.2,225a6,6,0,0,0-4.72,5.39C.23,233.54,0,236.74,0,240s.23,6.46.48,9.65Zm11.65-13.91,20.41-4.41a6,6,0,0,0,4.65-4.9,83.71,83.71,0,0,1,4.32-16.14,6,6,0,0,0-1.58-6.57l-15.42-14c1.34-2.58,2.75-5,4.2-7.38l19.77,6.37a6,6,0,0,0,6.49-1.9A84.82,84.82,0,0,1,66.84,175a6,6,0,0,0,1.91-6.49l-6.38-19.77q3.51-2.19,7.38-4.2l14,15.42a6,6,0,0,0,6.57,1.58,83.3,83.3,0,0,1,16.14-4.31,6,6,0,0,0,4.91-4.66l4.4-20.41a80.52,80.52,0,0,1,8.51,0l4.41,20.41a6,6,0,0,0,4.91,4.66,83.68,83.68,0,0,1,16.14,4.31,6,6,0,0,0,6.57-1.58l14-15.42c2.57,1.35,5,2.75,7.37,4.2l-6.37,19.78a6,6,0,0,0,1.91,6.49A84.28,84.28,0,0,1,185,186.85a6,6,0,0,0,6.49,1.9l19.77-6.37q2.19,3.5,4.2,7.37l-15.42,14a6,6,0,0,0-1.59,6.57,82.61,82.61,0,0,1,4.32,16.14,6,6,0,0,0,4.66,4.9l20.41,4.41c.07,1.41.13,2.83.13,4.26s-.05,2.85-.13,4.25l-20.41,4.41a6,6,0,0,0-4.66,4.9,82.87,82.87,0,0,1-4.31,16.15,6,6,0,0,0,1.58,6.57l15.42,14c-1.35,2.57-2.75,5-4.2,7.37l-19.77-6.37a6,6,0,0,0-6.49,1.91A84.82,84.82,0,0,1,173.16,305a6,6,0,0,0-1.91,6.48l6.37,19.77c-2.33,1.46-4.79,2.86-7.36,4.2l-14-15.42a6,6,0,0,0-6.58-1.58,83.3,83.3,0,0,1-16.14,4.31,6,6,0,0,0-4.9,4.66l-4.4,20.41a78.11,78.11,0,0,1-8.52,0l-4.41-20.41a6,6,0,0,0-4.9-4.66,84,84,0,0,1-16.15-4.31,6,6,0,0,0-6.57,1.58l-14,15.42c-2.58-1.35-5.05-2.75-7.38-4.2l6.37-19.78a6,6,0,0,0-1.9-6.49A83.69,83.69,0,0,1,55,293.15a6,6,0,0,0-6.49-1.91l-19.78,6.37c-1.45-2.33-2.86-4.8-4.19-7.37l15.42-14a6,6,0,0,0,1.58-6.58,82.59,82.59,0,0,1-4.31-16.14,6,6,0,0,0-4.66-4.9l-20.42-4.39c-.08-1.41-.13-2.83-.13-4.26s.05-2.85.13-4.26Z"></path><path class="cls-1" d="M313.31,85.41a6,6,0,0,0,4.16-5A70.42,70.42,0,0,0,318,72a72.63,72.63,0,0,0-.52-8.38,6,6,0,0,0-4.16-5l-16.64-5.23c-.5-1.36-1.05-2.7-1.65-4l8.06-15.45a6,6,0,0,0-.61-6.5A72.89,72.89,0,0,0,290.6,15.53a6,6,0,0,0-6.49-.62L268.64,23c-1.3-.6-2.64-1.15-4-1.65L259.41,4.69a6,6,0,0,0-5-4.16,66.13,66.13,0,0,0-16.75,0,6,6,0,0,0-5,4.16l-5.23,16.64c-1.36.5-2.7,1.05-4,1.65L207.9,14.92a6,6,0,0,0-6.5.61A73.23,73.23,0,0,0,189.53,27.4a6,6,0,0,0-.62,6.5L197,49.35c-.6,1.31-1.15,2.65-1.65,4l-16.64,5.23a6,6,0,0,0-4.16,5,67.7,67.7,0,0,0,0,16.75,6,6,0,0,0,4.16,5l16.64,5.23c.5,1.35,1.05,2.69,1.65,4l-8.06,15.45a6,6,0,0,0,.61,6.5,72.83,72.83,0,0,0,11.87,11.87,6,6,0,0,0,6.5.62L223.34,121c1.31.59,2.65,1.15,4,1.64l5.23,16.64a6,6,0,0,0,5,4.16A70.87,70.87,0,0,0,246,144a72.46,72.46,0,0,0,8.37-.52,6,6,0,0,0,5-4.16l5.23-16.64c1.36-.5,2.7-1.05,4-1.65l15.45,8.06a6,6,0,0,0,6.5-.61,72.5,72.5,0,0,0,11.87-11.88,6,6,0,0,0,.63-6.5L295,94.65c.6-1.3,1.16-2.64,1.66-4ZM290.15,80.1a6,6,0,0,0-3.94,4A42.38,42.38,0,0,1,283,91.87a6,6,0,0,0,0,5.62l7.62,14.59c-1.42,1.57-2.93,3.08-4.5,4.5L271.49,109a6,6,0,0,0-5.62,0,42.38,42.38,0,0,1-7.76,3.21,6,6,0,0,0-4,3.94l-5,15.75a51.26,51.26,0,0,1-6.32,0l-5-15.75a6,6,0,0,0-4-3.94,42.09,42.09,0,0,1-7.76-3.21,6,6,0,0,0-5.62,0l-14.59,7.62q-2.37-2.14-4.5-4.5L209,97.49a6,6,0,0,0,0-5.62,42.38,42.38,0,0,1-3.21-7.76,6.05,6.05,0,0,0-3.94-4L186.1,75.16C186,74.06,186,73,186,72s0-2.06.1-3.16l15.75-5a6,6,0,0,0,3.94-4A41.81,41.81,0,0,1,209,52.13a6,6,0,0,0,0-5.62l-7.61-14.59a59.7,59.7,0,0,1,4.5-4.5L220.51,35a6,6,0,0,0,5.62,0,43.06,43.06,0,0,1,7.76-3.2,6,6,0,0,0,4-3.94l5-15.75a51.26,51.26,0,0,1,6.32,0l5,15.75a6,6,0,0,0,4,3.94,42.76,42.76,0,0,1,7.76,3.2,6,6,0,0,0,5.62,0l14.59-7.61a61.63,61.63,0,0,1,4.5,4.5L283,46.51a6,6,0,0,0,0,5.62,42.38,42.38,0,0,1,3.21,7.76,6,6,0,0,0,3.94,4l15.75,5c.07,1.1.1,2.14.1,3.16s0,2.06-.1,3.16Z"></path><path class="cls-1" d="M355.57,197.78l-10.3-3.66a50,50,0,0,0-2-4.9l4.69-9.87a6,6,0,0,0-.7-6.26,59.93,59.93,0,0,0-10.31-10.32,6,6,0,0,0-6.27-.7l-9.88,4.69a45.82,45.82,0,0,0-4.9-2l-3.66-10.31a6,6,0,0,0-4.93-4,55.52,55.52,0,0,0-14.57,0,6,6,0,0,0-4.92,4l-3.66,10.31a49.11,49.11,0,0,0-4.91,2l-9.87-4.68a6,6,0,0,0-6.26.69,60,60,0,0,0-10.32,10.32,6,6,0,0,0-.7,6.27l4.69,9.87a46.69,46.69,0,0,0-2,4.9l-10.31,3.67a6,6,0,0,0-4,4.93,55.37,55.37,0,0,0,0,14.55,6,6,0,0,0,4,4.93l10.3,3.66a50,50,0,0,0,2,4.9l-4.69,9.87a6,6,0,0,0,.7,6.26,60.35,60.35,0,0,0,10.31,10.33,6,6,0,0,0,6.27.69l9.88-4.69a45.82,45.82,0,0,0,4.9,2l3.66,10.31a6,6,0,0,0,4.93,3.95A59.14,59.14,0,0,0,300,270a61,61,0,0,0,7.28-.48,6,6,0,0,0,4.93-3.95l3.66-10.31a49.93,49.93,0,0,0,4.9-2l9.87,4.69a6,6,0,0,0,6.27-.7,61,61,0,0,0,10.32-10.31,6,6,0,0,0,.69-6.27l-4.69-9.88a45.82,45.82,0,0,0,2-4.9l10.31-3.66a6,6,0,0,0,3.95-4.93A59.14,59.14,0,0,0,360,210a61,61,0,0,0-.48-7.28,6,6,0,0,0-3.95-4.94Zm-7.63,14.41-9.51,3.37a6,6,0,0,0-3.77,4.06,35.46,35.46,0,0,1-3.34,8.08,6,6,0,0,0-.19,5.53l4.31,9.07c-1,1.09-2.05,2.14-3.13,3.13l-9.08-4.31a6,6,0,0,0-5.52.2,36.27,36.27,0,0,1-8.08,3.33,6,6,0,0,0-4.06,3.77l-3.37,9.51a40,40,0,0,1-4.38,0l-3.38-9.51a6,6,0,0,0-4.05-3.77,36.16,36.16,0,0,1-8.09-3.33,6,6,0,0,0-5.52-.2l-9.08,4.31q-1.63-1.5-3.13-3.13l4.31-9.07a6,6,0,0,0-.19-5.53,35.35,35.35,0,0,1-3.33-8.08,6,6,0,0,0-3.78-4.06l-9.51-3.37c0-.73-.07-1.45-.07-2.19s0-1.47.06-2.19l9.51-3.39a6,6,0,0,0,3.77-4,35.65,35.65,0,0,1,3.34-8.08,6,6,0,0,0,.19-5.52l-4.31-9.08c1-1.09,2-2.14,3.13-3.13l9.08,4.31a6,6,0,0,0,5.52-.2,35.81,35.81,0,0,1,8.08-3.33,6,6,0,0,0,4.06-3.77l3.37-9.51a40,40,0,0,1,4.38,0l3.38,9.51a6,6,0,0,0,4.05,3.77,36.16,36.16,0,0,1,8.09,3.33,6,6,0,0,0,5.52.2l9.08-4.31q1.63,1.5,3.13,3.13l-4.31,9.08a6,6,0,0,0,.19,5.52,35.35,35.35,0,0,1,3.33,8.08,6,6,0,0,0,3.78,4l9.51,3.38c.05.73.07,1.46.07,2.2s0,1.46-.06,2.19Z"></path><path class="cls-1" d="M120,306a66,66,0,1,0-66-66,66.08,66.08,0,0,0,66,66Zm0-120a54,54,0,1,1-54,54,54.07,54.07,0,0,1,54-54Z"></path><path class="cls-1" d="M.13,140.15l9.22,7.69A143.69,143.69,0,0,1,120,96c3,0,6.1.17,9.15.37l-7.39,7.39,8.48,8.48,18-18a6,6,0,0,0,0-8.48l-18-18-8.48,8.48,8.15,8.15c-3.3-.2-6.61-.39-9.91-.39A155.69,155.69,0,0,0,.13,140.15Z"></path><path class="cls-1" d="M246,42a30,30,0,1,0,30,30,30,30,0,0,0-30-30Zm0,48a18,18,0,1,1,18-18,18,18,0,0,1-18,18Z"></path><path class="cls-1" d="M300,186a24,24,0,1,0,24,24,24,24,0,0,0-24-24Zm0,36a12,12,0,1,1,12-12,12,12,0,0,1-12,12Z"></path><path class="cls-1" d="M355.18,18.12l-30-6a6,6,0,0,0-7.07,4.7l-6,30,11.77,2.36L327.11,33a90,90,0,0,1-10.85,95.22l9.36,7.51A102.07,102.07,0,0,0,337.46,26.81l15.36,3.08Z"></path></g></g></svg> 