<?xml version="1.0" encoding="UTF-8"?> <!-- Generator: Adobe Illustrator 24.1.2, SVG Export Plug-In . SVG Version: 6.00 Build 0) --> <svg xmlns="http://www.w3.org/2000/svg" xmlns:xlink="http://www.w3.org/1999/xlink" version="1.1" id="Layer_1" x="0px" y="0px" viewBox="0 0 283.465 283.465" style="enable-background:new 0 0 283.465 283.465;" xml:space="preserve"> <circle style="fill:#6598C0;" cx="141.732" cy="141.732" r="141.732"></circle> <circle style="fill:#FFFFFF;" cx="141.732" cy="141.732" r="129.411"></circle> <g> <path style="fill:#236B97;" d="M207.28,81.56h-25.544V66.099c0-2.601-2.109-4.707-4.707-4.707H66.099 c-2.601,0-4.707,2.107-4.707,4.707v131.098c0,13.717,11.159,24.876,24.876,24.876c0,0,78.201,0,110.93,0 c13.738,0,24.876-11.138,24.876-24.876V96.353C222.073,88.196,215.437,81.56,207.28,81.56L207.28,81.56z M193.493,90.975 c-0.659,1.692-1.003,3.508-1.003,5.378v15.461h-10.754V90.975H193.493z M86.267,212.658c-8.526,0-15.461-6.935-15.461-15.461 V70.806h101.515v126.391c0,5.845,2.02,11.215,5.395,15.461H86.267z M212.658,197.197c0,8.539-6.922,15.461-15.461,15.461 c-6.898,0-12.738-4.518-14.73-10.754h14.73c2.599,0,4.707-2.109,4.707-4.707c0-2.601-2.109-4.707-4.707-4.707h-15.463v-10.755 h15.463c2.599,0,4.707-2.107,4.707-4.707c0-2.599-2.109-4.707-4.707-4.707h-15.463v-10.754h15.463c2.599,0,4.707-2.107,4.707-4.707 c0-2.599-2.109-4.707-4.707-4.707h-15.463v-10.754h15.463c2.599,0,4.707-2.109,4.707-4.707c0-2.601-2.109-4.707-4.707-4.707 h-15.463v-10.754h15.463c2.599,0,4.707-2.109,4.707-4.707V96.353c0-2.937,2.375-5.378,5.376-5.378c2.965,0,5.378,2.413,5.378,5.378 V197.197z M212.658,197.197"></path> <path style="fill:#236B97;" d="M156.858,81.56H86.267c-2.599,0-4.707,2.109-4.707,4.707c0,2.601,2.109,4.707,4.707,4.707h70.591 c2.601,0,4.707-2.107,4.707-4.707C161.566,83.668,159.459,81.56,156.858,81.56L156.858,81.56z M156.858,81.56"></path> <path style="fill:#236B97;" d="M156.858,152.151h-25.211c-2.599,0-4.707,2.109-4.707,4.707c0,2.601,2.109,4.707,4.707,4.707h25.211 c2.601,0,4.707-2.107,4.707-4.707C161.566,154.26,159.459,152.151,156.858,152.151L156.858,152.151z M156.858,152.151"></path> <path style="fill:#236B97;" d="M111.479,152.151H86.267c-2.599,0-4.707,2.109-4.707,4.707c0,2.601,2.109,4.707,4.707,4.707h25.211 c2.601,0,4.707-2.107,4.707-4.707C116.186,154.26,114.079,152.151,111.479,152.151L111.479,152.151z M111.479,152.151"></path> <path style="fill:#236B97;" d="M156.858,192.49h-25.211c-2.599,0-4.707,2.107-4.707,4.707c0,2.599,2.109,4.707,4.707,4.707h25.211 c2.601,0,4.707-2.109,4.707-4.707C161.566,194.597,159.459,192.49,156.858,192.49L156.858,192.49z M156.858,192.49"></path> <path style="fill:#236B97;" d="M111.479,192.49H86.267c-2.599,0-4.707,2.107-4.707,4.707c0,2.599,2.109,4.707,4.707,4.707h25.211 c2.601,0,4.707-2.109,4.707-4.707C116.186,194.597,114.079,192.49,111.479,192.49L111.479,192.49z M111.479,192.49"></path> <path style="fill:#236B97;" d="M156.858,172.32h-25.211c-2.599,0-4.707,2.109-4.707,4.707c0,2.6,2.109,4.707,4.707,4.707h25.211 c2.601,0,4.707-2.107,4.707-4.707C161.566,174.428,159.459,172.32,156.858,172.32L156.858,172.32z M156.858,172.32"></path> <path style="fill:#236B97;" d="M111.479,172.32H86.267c-2.599,0-4.707,2.109-4.707,4.707c0,2.6,2.109,4.707,4.707,4.707h25.211 c2.601,0,4.707-2.107,4.707-4.707C116.186,174.428,114.079,172.32,111.479,172.32L111.479,172.32z M111.479,172.32"></path> <path style="fill:#236B97;" d="M156.858,101.728H86.267c-2.599,0-4.707,2.109-4.707,4.707v30.254c0,2.599,2.109,4.707,4.707,4.707 h70.591c2.601,0,4.707-2.109,4.707-4.707v-30.254C161.566,103.837,159.459,101.728,156.858,101.728L156.858,101.728z M152.151,131.982H90.975v-20.839h61.176V131.982z M152.151,131.982"></path> </g> <g> </g> <g> </g> <g> </g> <g> </g> <g> </g> <g> </g> </svg> 