<?xml version="1.0" encoding="UTF-8"?> <!-- Generator: Adobe Illustrator 24.1.2, SVG Export Plug-In . SVG Version: 6.00 Build 0) --> <svg xmlns="http://www.w3.org/2000/svg" xmlns:xlink="http://www.w3.org/1999/xlink" version="1.1" id="Layer_1" x="0px" y="0px" viewBox="0 0 283.465 283.465" style="enable-background:new 0 0 283.465 283.465;" xml:space="preserve"> <circle style="fill:#6598C0;" cx="141.732" cy="141.732" r="141.732"></circle> <circle style="fill:#FFFFFF;" cx="141.732" cy="141.732" r="129.411"></circle> <g> <path style="fill:#236B97;" d="M238.783,141.42l-18.277-52.077c-0.627-1.785-2.474-2.838-4.33-2.466l-19.037,3.807l-33.461-9.954 c-4.828-1.437-10.122-2.292-16.088,1.156l-5.964,3.441l-5.962-3.441c-5.969-3.447-11.26-2.592-16.09-1.156l-33.341,9.92 l-17.311-4.567c-1.881-0.496-3.835,0.511-4.523,2.333l-19.686,52.179c-0.657,1.739,0.044,3.7,1.655,4.63l16.368,9.45 c-1.162,2.701-1.384,5.699-0.608,8.594c0.912,3.405,3.087,6.245,6.125,8.001c2.408,1.389,5.078,1.929,7.658,1.713 c0.107,4.445,2.456,8.731,6.578,11.112c3.829,2.21,8.315,2.274,12.059,0.568c1.071,2.59,2.969,4.862,5.579,6.37 c3.038,1.753,6.586,2.216,9.992,1.304c1.001-0.27,1.953-0.645,2.844-1.122c1.132,2.436,2.972,4.46,5.339,5.826 c2.068,1.195,4.33,1.761,6.562,1.761c3.161,0,6.264-1.14,8.682-3.245l11.551,6.669c2.068,1.194,4.33,1.761,6.562,1.761 c4.555,0,8.992-2.363,11.428-6.582c1.009-1.747,1.571-3.631,1.721-5.521c2.749,1.235,5.82,1.482,8.784,0.688 c3.404-0.912,6.245-3.089,7.999-6.126c1.209-2.094,1.775-4.386,1.763-6.643c5.072,0.6,10.261-1.795,12.974-6.491 c1.037-1.799,1.603-3.744,1.732-5.69c5.863,2.072,12.572-0.261,15.792-5.835c1.397-2.421,1.937-5.103,1.713-7.696l20.971-7.856 C238.466,145.51,239.468,143.371,238.783,141.42L238.783,141.42z M72.05,164.69c-1.28-0.738-2.197-1.941-2.584-3.386 c-0.388-1.445-0.194-2.945,0.546-4.225l5.305-9.188c0.738-1.28,1.941-2.199,3.386-2.586c1.445-0.386,2.945-0.192,4.225,0.546 c2.656,1.533,3.574,4.945,2.044,7.603l-5.313,9.202c0,0.002,0,0.002-0.002,0.002C78.119,165.313,74.707,166.223,72.05,164.69 L72.05,164.69z M93.899,175.476c-1.535,2.66-4.949,3.576-7.611,2.041c-2.662-1.536-3.576-4.951-2.041-7.611l1.987-3.441v-0.002 l5.317-9.207c0-0.002,0.002-0.002,0.002-0.004l0.002-0.004l4.692-8.125c0.738-1.279,1.941-2.197,3.386-2.585 c1.445-0.388,2.945-0.194,4.225,0.546c1.281,0.74,2.199,1.942,2.585,3.386c0.388,1.445,0.194,2.945-0.546,4.225l-1.397,2.422 c-0.004,0.004-0.006,0.008-0.008,0.012c0,0.002,0,0.002-0.002,0.002l-9.184,15.91c0,0.002-0.002,0.002-0.002,0.002 c0,0.002-0.002,0.004-0.002,0.004L93.899,175.476z M111.537,182.415c-0.74,1.278-1.942,2.197-3.386,2.584 c-1.447,0.386-2.946,0.192-4.227-0.546c-2.658-1.535-3.572-4.943-2.042-7.603l0.004-0.008c0-0.002,0.002-0.002,0.002-0.004 l9.184-15.907c0-0.002,0-0.002,0-0.004c1.538-2.66,4.951-3.576,7.613-2.039c1.28,0.738,2.199,1.941,2.584,3.386 c0.388,1.444,0.194,2.944-0.546,4.225l-1.939,3.36c0,0.002,0,0.002-0.002,0.002l-5.303,9.188c0,0,0,0-0.002,0 c-0.002,0.004-0.004,0.008-0.006,0.012L111.537,182.415z M122.098,190.463c-1.28-0.74-2.199-1.943-2.586-3.388 c-0.386-1.443-0.192-2.945,0.546-4.225l5.306-9.188c1.538-2.66,4.949-3.576,7.611-2.04c2.662,1.538,3.576,4.951,2.04,7.613 l-5.305,9.188C128.173,191.084,124.757,191.999,122.098,190.463L122.098,190.463z M156.503,193.607 c-1.535,2.662-4.951,3.574-7.611,2.041l-10.935-6.313l3.637-6.301c0.675-1.165,1.147-2.392,1.433-3.641l11.438,6.603 c0,0,0,0,0.002,0l0.01,0.006C157.126,187.542,158.037,190.951,156.503,193.607L156.503,193.607z M212.767,147.026 c-1.002-1.269-2.256-2.372-3.74-3.23c-1.389-0.801-6.439-3.837-15.438-9.279c-1.797-1.087-4.132-0.511-5.218,1.286 c-1.084,1.795-0.51,4.13,1.287,5.216c9.043,5.468,14.137,8.529,15.57,9.358c2.662,1.536,3.576,4.949,2.04,7.611 c-1.538,2.662-4.951,3.576-7.611,2.04l-8.141-4.702c-0.002,0-0.006-0.002-0.008-0.004l-30.238-17.458 c-1.818-1.049-4.141-0.426-5.191,1.391c-1.049,1.817-0.426,4.142,1.391,5.191l30.234,17.456h0.002c0,0,0,0,0.002,0.002l0.008,0.004 c2.652,1.54,3.56,4.947,2.026,7.605c-1.536,2.66-4.949,3.576-7.611,2.04l-5.351-3.089c-0.002-0.002-0.006-0.004-0.008-0.006h-0.002 l-26.545-15.327c-1.817-1.049-4.14-0.428-5.189,1.391c-1.051,1.817-0.427,4.14,1.39,5.191l26.543,15.323c0,0,0,0,0.002,0.002 c2.658,1.535,3.572,4.949,2.036,7.611c-0.738,1.278-1.941,2.196-3.386,2.584c-1.445,0.388-2.944,0.194-4.225-0.546l-9.117-5.264 c-0.006-0.002-0.01-0.004-0.014-0.008h-0.002l-16.743-9.667c-1.114-1.894-2.713-3.532-4.747-4.708 c-2.426-1.401-5.116-1.939-7.714-1.712c-0.033-1.007-0.182-2.02-0.451-3.022c-0.912-3.406-3.089-6.245-6.127-8.001 c-2.61-1.506-5.529-2.015-8.306-1.646c-0.071-0.722-0.202-1.443-0.394-2.159c-0.912-3.405-3.089-6.245-6.127-8.001 c-5.571-3.217-12.542-1.886-16.583,2.832c-1.085-1.623-2.547-3.024-4.346-4.064c-3.038-1.753-6.588-2.216-9.992-1.304 c-3.405,0.912-6.247,3.087-8.001,6.127l-2.285,3.958l-13.49-7.789l17.337-45.954l15.028,3.964c0.675,0.178,1.386,0.166,2.052-0.031 l34.363-10.223c3.998-1.189,6.795-1.471,10.122,0.451l2.165,1.249l-13.31,7.686c-6.337,3.657-8.513,11.788-4.856,18.123 c3.538,6.128,11.236,8.268,17.907,4.973c3.586-1.771,8.8-4.116,12.732-5.614c2.869,1.73,9.307,5.63,13.902,8.416 c1.796,1.089,4.132,0.515,5.218-1.28c1.089-1.795,0.515-4.132-1.278-5.218c-4.419-2.679-8.282-5.018-11.042-6.689 c-1.383-0.837-2.491-1.506-3.255-1.965c-1.684-1.013-2.084-1.253-3.152-1.253c-0.426,0-0.847,0.071-1.251,0.212 c-4.494,1.565-11.05,4.508-15.239,6.578c-3.03,1.494-6.451,0.653-7.959-1.959c-1.563-2.707-0.633-6.18,2.074-7.744l26.873-15.514 c3.327-1.922,6.125-1.64,10.122-0.451l34.363,10.221c0.594,0.178,1.221,0.206,1.828,0.085l16.726-3.347l15.952,45.451 L212.767,147.026z M212.767,147.026"></path> <path style="fill:#236B97;" d="M176.996,125.114h-0.004c-2.098,0-3.798,1.702-3.798,3.799c0,2.098,1.704,3.799,3.802,3.799 c2.098,0,3.799-1.702,3.799-3.799C180.796,126.816,179.094,125.114,176.996,125.114L176.996,125.114z M176.996,125.114"></path> </g> <g> </g> <g> </g> <g> </g> <g> </g> <g> </g> <g> </g> </svg> 