<?xml version="1.0" encoding="UTF-8"?> <!-- Generator: Adobe Illustrator 24.1.2, SVG Export Plug-In . SVG Version: 6.00 Build 0) --> <svg xmlns="http://www.w3.org/2000/svg" xmlns:xlink="http://www.w3.org/1999/xlink" version="1.1" id="Layer_1" x="0px" y="0px" viewBox="0 0 283.465 283.465" style="enable-background:new 0 0 283.465 283.465;" xml:space="preserve"> <circle style="fill:#6598C0;" cx="141.732" cy="141.732" r="141.732"></circle> <circle style="fill:#FFFFFF;" cx="141.732" cy="141.732" r="129.411"></circle> <g> <path style="fill:#236B97;" d="M141.732,95.19c11.246,0,20.362-9.117,20.362-20.362s-9.117-20.362-20.362-20.362 s-20.362,9.117-20.362,20.362C121.383,86.068,130.492,95.177,141.732,95.19z M141.732,60.283c8.033,0,14.544,6.512,14.544,14.544 s-6.512,14.544-14.544,14.544c-8.033,0-14.545-6.512-14.545-14.544C127.197,66.799,133.704,60.293,141.732,60.283z"></path> <path style="fill:#236B97;" d="M176.639,173.73v-49.451c-0.016-14.452-11.728-26.164-26.18-26.18h-17.453 c-14.452,0.016-26.164,11.728-26.18,26.18v49.451h11.636v55.269h5.818v-66.905h-5.818v5.818h-5.818v-43.633 c0.013-11.24,9.122-20.349,20.362-20.362h17.453c11.24,0.013,20.349,9.122,20.362,20.362v43.633h-5.818v-5.818h-5.818v66.905h5.818 V173.73H176.639z"></path> <rect x="138.823" y="173.73" style="fill:#236B97;" width="5.818" height="55.269"></rect> <path style="fill:#236B97;" d="M199.91,118.461c9.639,0,17.453-7.814,17.453-17.453s-7.814-17.453-17.453-17.453 s-17.453,7.814-17.453,17.453C182.467,110.643,190.275,118.451,199.91,118.461z M199.91,89.372c6.426,0,11.636,5.209,11.636,11.636 s-5.209,11.636-11.636,11.636s-11.636-5.209-11.636-11.636S193.484,89.372,199.91,89.372z"></path> <path style="fill:#236B97;" d="M228.999,141.732c-0.013-11.24-9.122-20.349-20.362-20.362h-26.18v5.818h26.18 c8.029,0.01,14.535,6.516,14.544,14.545v37.816h-5.818v-5.818h-5.818v55.269h5.818v-43.633h11.636V141.732z"></path> <polygon style="fill:#236B97;" points="182.457,179.548 170.821,179.548 170.821,185.366 182.457,185.366 182.457,228.999 188.275,228.999 188.275,173.73 182.457,173.73 "></polygon> <rect x="197.001" y="185.366" style="fill:#236B97;" width="5.818" height="43.633"></rect> <path style="fill:#236B97;" d="M83.554,118.461c9.639,0,17.453-7.814,17.453-17.453s-7.814-17.453-17.453-17.453 s-17.453,7.814-17.453,17.453C66.111,110.643,73.919,118.451,83.554,118.461z M83.554,89.372c6.426,0,11.636,5.209,11.636,11.636 s-5.209,11.636-11.636,11.636s-11.636-5.209-11.636-11.636S77.128,89.372,83.554,89.372z"></path> <path style="fill:#236B97;" d="M74.828,127.188h26.18v-5.818h-26.18c-11.24,0.013-20.349,9.122-20.362,20.362v43.633h11.636v43.633 h5.818V173.73h-5.818v5.818h-5.818v-37.816C60.293,133.704,66.799,127.197,74.828,127.188z"></path> <polygon style="fill:#236B97;" points="101.008,173.73 95.19,173.73 95.19,228.999 101.008,228.999 101.008,185.366 112.643,185.366 112.643,179.548 101.008,179.548 "></polygon> <rect x="80.645" y="185.366" style="fill:#236B97;" width="5.818" height="43.633"></rect> </g> <g> </g> <g> </g> <g> </g> <g> </g> <g> </g> <g> </g> </svg> 